<svg width="119" height="119" viewBox="0 0 119 119" fill="none" xmlns="http://www.w3.org/2000/svg">
<path d="M119 59.5C119 92.3609 92.3609 119 59.5 119C26.6391 119 0 92.3609 0 59.5C0 26.6391 26.6391 0 59.5 0C92.3609 0 119 26.6391 119 59.5Z" fill="#009800"/>
<path d="M23.96 61C22.3067 61 20.9467 60.52 19.88 59.56C18.8667 58.6 18.4667 57.16 18.68 55.24C18.7333 54.5467 18.8933 53.8267 19.16 53.08C19.48 52.28 19.8267 51.5067 20.2 50.76C20.52 50.0133 20.84 49.64 21.16 49.64C21.4267 49.64 21.4533 49.8533 21.24 50.28C20.5467 51.72 20.2 53 20.2 54.12C20.2 55.2933 20.6 56.1733 21.4 56.76C22.2533 57.3467 23.3467 57.64 24.68 57.64C27.2933 57.64 30.1733 56.8133 33.32 55.16C36.4667 53.4533 39.72 51.2933 43.08 48.68C46.44 46.0133 49.6667 43.24 52.76 40.36C50.68 40.2533 48.7333 40.1467 46.92 40.04C45.1067 39.9333 43.5067 39.88 42.12 39.88C40.9467 39.88 39.5333 39.9867 37.88 40.2C36.2267 40.4133 34.9467 40.9733 34.04 41.88C33.6667 42.2533 33.32 42.8133 33 43.56C32.7333 44.2533 32.6 44.9733 32.6 45.72C32.6 45.9333 32.6 46.1467 32.6 46.36C32.6533 46.52 32.7067 46.7067 32.76 46.92C32.5467 46.8133 32.1467 46.7333 31.56 46.68C31.0267 46.5733 30.68 46.2267 30.52 45.64C30.4667 45.48 30.44 45.2133 30.44 44.84C30.44 43.9867 30.76 43.2933 31.4 42.76C32.04 42.1733 32.8133 41.6667 33.72 41.24C34.6267 40.8133 35.4533 40.44 36.2 40.12C37.96 39.3733 39.7733 38.76 41.64 38.28C43.5067 37.8 45.4 37.56 47.32 37.56C49.5067 37.56 52.2267 37.64 55.48 37.8C57.9867 35.3467 60.3067 33.0267 62.44 30.84C64.5733 28.6533 66.3067 26.84 67.64 25.4C69.5067 23.4267 71.48 21.7467 73.56 20.36C75.6933 18.92 77.8533 17.9067 80.04 17.32H75.64C73.7733 17.32 71.7467 17.4 69.56 17.56C67.3733 17.72 65.32 18.0667 63.4 18.6C61.48 19.1333 59.88 19.9333 58.6 21C57.8 21.6933 57.1867 22.4933 56.76 23.4C56.3867 24.2533 56.2 25.0533 56.2 25.8C56.2 26.8133 56.4933 27.5067 57.08 27.88C57.1333 27.88 57.16 27.9067 57.16 27.96C57.16 28.12 56.9733 28.3067 56.6 28.52C56.2267 28.68 55.96 28.7067 55.8 28.6C55.2667 28.2267 54.7867 27.48 54.36 26.36C53.9867 25.1867 53.8533 24.2533 53.96 23.56C54.2267 21.9067 54.9467 20.5733 56.12 19.56C57.3467 18.4933 58.84 17.6667 60.6 17.08C62.4133 16.4933 64.3067 16.0933 66.28 15.88C68.3067 15.6667 70.2267 15.5333 72.04 15.48C73.9067 15.4267 75.48 15.4 76.76 15.4H85.48C85.5867 15.4 85.6133 15.4267 85.56 15.48C86.8933 14.8933 88.28 14.3067 89.72 13.72C91.2133 13.1333 92.4933 12.84 93.56 12.84C93.8267 12.84 94.0933 12.92 94.36 13.08C94.68 13.24 94.84 13.4 94.84 13.56C94.84 13.8267 94.3067 13.96 93.24 13.96C92.7067 13.96 92.1467 14.0667 91.56 14.28C91.0267 14.44 90.3067 15 89.4 15.96C88.6533 16.7067 87.72 17.9067 86.6 19.56C85.48 21.2133 84.2533 23.16 82.92 25.4C81.5867 27.5867 80.2533 29.9333 78.92 32.44C77.5867 34.8933 76.3067 37.32 75.08 39.72C73.8533 42.12 72.7867 44.3333 71.88 46.36C71.7733 46.68 71.48 47.4267 71 48.6C70.52 49.72 70.0667 50.9733 69.64 52.36C69.2133 53.6933 69 54.8933 69 55.96C69 57.4 69.5067 58.12 70.52 58.12C71 58.12 71.48 58.0133 71.96 57.8C72.6533 57.5333 73.3733 57.1333 74.12 56.6C74.8667 56.0667 75.5867 55.4533 76.28 54.76C77.6667 53.4267 78.84 52.1467 79.8 50.92C80.76 49.64 81.3467 48.8667 81.56 48.6C81.72 48.3333 81.9067 48.2 82.12 48.2C82.3333 48.2 82.44 48.3333 82.44 48.6C82.44 48.76 82.36 48.9733 82.2 49.24C81.8267 49.7733 81.1333 50.7067 80.12 52.04C79.1067 53.32 77.9067 54.6267 76.52 55.96C75.1867 57.2933 73.7467 58.3067 72.2 59C71.72 59.2133 71.2133 59.3733 70.68 59.48C70.1467 59.64 69.6133 59.72 69.08 59.72C68.0133 59.72 67.0267 59.3467 66.12 58.6C65.2667 57.8533 64.84 56.6267 64.84 54.92C64.84 53.3733 65.1333 51.72 65.72 49.96C66.36 48.1467 66.9467 46.68 67.48 45.56C68.5467 43.2667 69.8 40.7067 71.24 37.88C72.7333 35.0533 74.2533 32.2267 75.8 29.4C77.4 26.5733 78.8667 24.0133 80.2 21.72C81.5333 19.4267 82.6267 17.72 83.48 16.6C82.6267 16.6 81.48 16.9467 80.04 17.64C78.6 18.28 77.0533 19.16 75.4 20.28C73.8 21.3467 72.3067 22.6 70.92 24.04C69.2667 25.7467 67.3467 27.8267 65.16 30.28C63.0267 32.7333 60.7067 35.2933 58.2 37.96C59.4267 38.0133 60.6533 38.0667 61.88 38.12C63.1067 38.12 64.3333 38.12 65.56 38.12C66.4133 38.12 67.3467 38.04 68.36 37.88C69.4267 37.6667 70.4133 37.3467 71.32 36.92C71.32 36.92 71.16 37.2133 70.84 37.8C70.5733 38.3333 70.0933 38.8933 69.4 39.48C68.76 40.0133 67.88 40.3333 66.76 40.44C65.7467 40.4933 64.7333 40.5467 63.72 40.6C62.7067 40.6 61.6933 40.6 60.68 40.6C59.8267 40.6 58.9733 40.6 58.12 40.6C57.32 40.6 56.52 40.5733 55.72 40.52C53.2667 43.08 50.7067 45.5867 48.04 48.04C45.3733 50.44 42.68 52.6267 39.96 54.6C37.24 56.5733 34.52 58.12 31.8 59.24C29.1333 60.4133 26.52 61 23.96 61Z" fill="white"/>
<path d="M92.9806 57.0317C94.634 57.0242 95.9961 57.4981 97.0671 58.4532C98.0848 59.4086 98.4914 60.8468 98.2868 62.7677C98.2366 63.4613 98.0798 64.182 97.8166 64.9299C97.5002 65.7313 97.1571 66.5062 96.7871 67.2546C96.4705 68.0027 96.1522 68.3775 95.8322 68.3789C95.5656 68.3801 95.5379 68.1669 95.7493 67.7393C96.4361 66.2961 96.7769 65.0146 96.7719 63.8946C96.7665 62.7213 96.3625 61.8431 95.5599 61.2601C94.7039 60.6773 93.6092 60.3889 92.2759 60.395C89.6626 60.4069 86.7864 61.2466 83.6473 62.9142C80.5084 64.6351 77.2649 66.8099 73.9168 69.4385C70.5689 72.1204 67.3549 74.9083 64.2747 77.8023C66.3552 77.8996 68.3023 77.9974 70.1161 78.0958C71.9299 78.1942 73.5301 78.2403 74.9168 78.234C76.0901 78.2287 77.5029 78.1156 79.1553 77.8948C80.8076 77.6739 82.085 77.1081 82.9876 76.1973C83.3592 75.8223 83.7033 75.2607 84.02 74.5126C84.2835 73.8181 84.4135 73.0975 84.4101 72.3508C84.4092 72.1375 84.4082 71.9242 84.4072 71.7108C84.3532 71.5511 84.299 71.3647 84.2447 71.1516C84.4585 71.2573 84.8589 71.3355 85.4458 71.3861C85.9796 71.4904 86.3278 71.8355 86.4905 72.4214C86.5445 72.5811 86.5724 72.8477 86.5741 73.221C86.578 74.0743 86.2611 74.7691 85.6236 75.3054C84.9862 75.8949 84.2152 76.4051 83.3105 76.8359C82.4058 77.2667 81.5808 77.6437 80.8356 77.9671C79.079 78.7218 77.2685 79.3433 75.404 79.8318C73.5396 80.3203 71.6473 80.5689 69.7273 80.5776C67.5407 80.5875 64.8204 80.5199 61.5663 80.3747C59.0708 82.8394 56.7614 85.1699 54.638 87.3662C52.5146 89.5626 50.7896 91.3837 49.4628 92.8298C47.6051 94.8116 45.6394 96.5005 43.5657 97.8966C41.439 99.3463 39.2836 100.369 37.0996 100.966L41.4996 100.946C43.3662 100.938 45.3925 100.848 47.5784 100.678C49.7643 100.508 51.8161 100.153 53.7336 99.6105C55.6512 99.0684 57.2475 98.2611 58.5227 97.1887C59.3195 96.4917 59.9292 95.6889 60.3518 94.7803C60.7212 93.9253 60.9042 93.1245 60.9009 92.3778C60.8963 91.3645 60.5998 90.6725 60.0114 90.3018C59.9581 90.3021 59.9313 90.2755 59.9311 90.2222C59.9303 90.0622 60.1161 89.8747 60.4885 89.6597C60.8611 89.498 61.1276 89.4701 61.2881 89.576C61.8232 89.9469 62.3065 90.6914 62.7383 91.8095C63.117 92.9811 63.2545 93.9138 63.151 94.6076C62.8919 96.2622 62.1779 97.5987 61.0092 98.6174C59.7874 99.6896 58.2978 100.523 56.5405 101.118C54.7299 101.713 52.8384 102.121 50.866 102.344C48.8403 102.566 46.921 102.708 45.1079 102.77C43.2415 102.831 41.6683 102.865 40.3883 102.871L31.6684 102.911C31.5617 102.911 31.5349 102.885 31.588 102.831C30.2574 103.424 28.8734 104.017 27.4361 104.61C25.9454 105.203 24.6668 105.503 23.6001 105.507C23.3334 105.509 23.0664 105.43 22.799 105.271C22.4783 105.112 22.3176 104.953 22.3168 104.793C22.3156 104.527 22.8484 104.391 23.915 104.386C24.4483 104.384 25.0079 104.274 25.5935 104.058C26.1261 103.896 26.8436 103.333 27.7459 102.369C28.4892 101.618 29.417 100.414 30.5295 98.7558C31.642 97.0974 32.8598 95.1452 34.1829 92.8992C35.5063 90.7065 36.829 88.3538 38.1509 85.8411C39.4731 83.3817 40.7421 80.9493 41.9578 78.5437C43.1736 76.1382 44.2302 73.92 45.1276 71.8893C45.2328 71.5688 45.5228 70.8208 45.9974 69.6453C46.4724 68.5231 46.92 67.2677 47.3404 65.8791C47.761 64.5439 47.9688 63.3429 47.964 62.2763C47.9575 60.8363 47.4475 60.1186 46.4342 60.1232C45.9542 60.1254 45.4747 60.2342 44.9957 60.4497C44.3036 60.7195 43.5854 61.1228 42.8411 61.6595C42.0969 62.1963 41.3797 62.8129 40.6895 63.5093C39.3089 64.8489 38.1414 66.1343 37.187 67.3653C36.2328 68.6496 35.6497 69.4256 35.4376 69.6932C35.2788 69.9606 35.0927 70.0948 34.8794 70.0958C34.666 70.0968 34.5588 69.9639 34.5576 69.6972C34.5568 69.5372 34.6359 69.3236 34.7947 69.0562C35.1656 68.5211 35.8546 67.5847 36.8619 66.2467C37.8694 64.9622 39.0635 63.65 40.4441 62.3104C41.7713 60.9711 43.2067 59.9512 44.7502 59.2508C45.2292 59.0353 45.7352 58.873 46.268 58.7639C46.8006 58.6015 47.3336 58.5191 47.8669 58.5167C48.9336 58.5118 49.9219 58.8807 50.832 59.6232C51.6887 60.366 52.1209 61.5907 52.1287 63.2974C52.1357 64.844 51.8499 66.4987 51.2712 68.2613C50.6395 70.0775 50.0595 71.5468 49.5312 72.6693C48.475 74.9674 47.2333 77.5331 45.8061 80.3663C44.3257 83.1997 42.8185 86.0332 41.2847 88.8669C39.6976 91.7008 38.2425 94.2674 36.9196 96.5668C35.5967 98.8662 34.5112 100.578 33.6629 101.702C34.5162 101.698 35.6613 101.346 37.0982 100.646C38.5352 99.9995 40.0779 99.1125 41.7261 97.985C43.3213 96.9111 44.8089 95.651 46.189 94.2047C47.8346 92.4905 49.7451 90.4018 51.9206 87.9386C54.0428 85.4756 56.3511 82.9051 58.8456 80.227C57.6187 80.1793 56.3918 80.1315 55.165 80.0837C53.9383 80.0893 52.7116 80.0949 51.485 80.1005C50.6317 80.1043 49.6987 80.1886 48.6861 80.3532C47.6204 80.5714 46.6352 80.8958 45.7305 81.3266C45.7305 81.3266 45.8892 81.0326 46.2065 80.4444C46.4707 79.9099 46.9482 79.3477 47.6389 78.7579C48.2764 78.2217 49.155 77.8977 50.2745 77.7859C51.2875 77.728 52.3006 77.6701 53.3137 77.6121C54.327 77.6075 55.3404 77.6029 56.3537 77.5983C57.207 77.5944 58.0603 77.5906 58.9137 77.5867C59.7136 77.5831 60.5138 77.6061 61.314 77.6558C63.7557 75.0847 66.3043 72.5664 68.9598 70.101C71.6155 67.6889 74.2989 65.49 77.0099 63.5044C79.7209 61.5187 82.4338 59.9597 85.1487 58.8273C87.81 57.6419 90.4207 57.0434 92.9806 57.0317Z" fill="white"/>
</svg>
